<svg xmlns="http://www.w3.org/2000/svg" viewBox="0 0 286.61 32.56"><defs><style>.cls-1{fill:#2c439b;}.cls-2{fill:#f2683e;}</style></defs><title>Asset 17</title><g id="Layer_2" data-name="Layer 2"><g id="Layer_1-2" data-name="Layer 1"><path class="cls-1" d="M0,16.58V16.5A13.75,13.75,0,0,1,14.1,2.56,13.2,13.2,0,0,1,25.47,8.11l-5.59,4.33A7.28,7.28,0,0,0,14,9.3c-3.75,0-6.4,3.22-6.4,7.12v.08c0,4,2.65,7.16,6.4,7.16,2.8,0,4.44-1.3,6.05-3.25l5.59,4a13.47,13.47,0,0,1-11.83,6.05A13.62,13.62,0,0,1,0,16.58Z"/><path class="cls-1" d="M29.66,3.09h7.43v10h9.54v-10h7.43V29.91H46.63V19.72H37.09V29.91H29.66Z"/><path class="cls-1" d="M68.09,2.9h7.17l11.41,27h-8l-1.91-4.83H66.41l-1.92,4.83H56.72Zm6.52,16.4-3-7.59-3,7.59Z"/><path class="cls-1" d="M90.06,3.09h12.68c4.1,0,6.93,1.08,8.73,2.88a8.37,8.37,0,0,1,2.38,6.24v.08a8.51,8.51,0,0,1-5.52,8.27l6.4,9.35h-8.54l-5.41-8.12H97.49v8.12H90.06ZM102.43,16c2.49,0,4-1.22,4-3.17v-.08c0-2.15-1.57-3.22-4-3.22h-4.9V16Z"/><path class="cls-1" d="M117.5,16.58V16.5c0-7.81,6.13-13.94,14.4-13.94a15.58,15.58,0,0,1,10.88,3.87l-4.37,5.28a9.37,9.37,0,0,0-6.47-2.53,7,7,0,0,0-6.86,7.32v.08a7.1,7.1,0,0,0,7.28,7.47,7.46,7.46,0,0,0,4.29-1.11V19.68H131.4V14.24h12.3v12a17.89,17.89,0,0,1-11.64,4.17C123.7,30.44,117.5,24.7,117.5,16.58Z"/><path class="cls-1" d="M148.62,3.09h21.56V9.38H156v4.09h12.87v5.86H156v4.26h14.4v6.32H148.62Z"/><path class="cls-2" d="M203.58,3.09h8.27l6.09,17,6.13-17h8.12l-10.88,27h-6.89Z"/><path class="cls-2" d="M235.58,3.09h21.56V9.38H242.93v4.09H255.8v5.86H242.93v4.26h14.4v6.32H235.58Z"/><path class="cls-2" d="M261.94,3.09h12.68c4.1,0,6.93,1.08,8.73,2.88a8.37,8.37,0,0,1,2.38,6.24v.08a8.49,8.49,0,0,1-5.52,8.27l6.4,9.35h-8.54l-5.4-8.12h-3.3v8.12h-7.43ZM274.32,16c2.48,0,4-1.22,4-3.17v-.08c0-2.15-1.57-3.22-4-3.22h-4.91V16Z"/><path class="cls-2" d="M176.52,24.41l0,.07a13.62,13.62,0,0,0,6.85,5.36l-.56,2.72,11.83-3.75-9-9.88-.7,3.43a7.72,7.72,0,0,1-2.12-2.14l0-.06a6.84,6.84,0,0,1,1.73-9.74h0l-4-5.39C174,9.65,172.34,18.1,176.52,24.41Z"/><path class="cls-2" d="M193.6,3l.83-3-12,2.94,8.25,10.53.9-3.26a7.71,7.71,0,0,1,2.63,2.46l0,.07a6.86,6.86,0,0,1-1.27,9.4l4.38,5.09a14,14,0,0,0,3.2-18.77l0-.06A13.73,13.73,0,0,0,193.6,3Z"/></g></g></svg>